<?xml version="1.0" standalone="no"?>
<!DOCTYPE svg PUBLIC "-//W3C//DTD SVG 20010904//EN"
 "http://www.w3.org/TR/2001/REC-SVG-20010904/DTD/svg10.dtd">
<svg version="1.0" xmlns="http://www.w3.org/2000/svg"
 width="675.000000pt" height="675.000000pt" viewBox="0 0 675.000000 675.000000"
 preserveAspectRatio="xMidYMid meet">
<metadata>
Created by potrace 1.14, written by Peter Selinger 2001-2017
</metadata>
<g transform="translate(0.000000,675.000000) scale(0.100000,-0.100000)"
fill="#000000" stroke="none">
<path d="M2518 5847 l-798 -462 0 -97 0 -98 166 0 166 0 61 36 c34 19 117 70
185 112 l122 76 0 47 c0 47 0 48 57 80 l57 33 55 -30 56 -31 0 -68 0 -69 -55
-32 c-52 -30 -56 -31 -81 -17 -26 15 -30 14 -170 -74 -79 -49 -169 -104 -200
-121 l-56 -32 -182 0 -181 0 0 -290 0 -290 179 0 c139 0 180 3 184 13 3 8 29
26 59 42 l53 28 58 -33 57 -32 0 -63 0 -63 -57 -36 -58 -35 -55 31 c-30 17
-59 37 -63 44 -6 11 -45 14 -182 14 l-175 0 0 -448 0 -449 447 -259 c245 -142
451 -260 458 -262 7 -2 36 34 65 78 53 80 54 83 54 158 l1 75 55 33 c59 35 56
35 133 -13 36 -23 37 -24 37 -87 l0 -65 -54 -30 c-29 -17 -61 -31 -70 -31 -17
0 -121 -142 -121 -165 0 -11 573 -355 591 -355 2 0 4 195 4 434 l0 433 -175
127 -176 127 -144 -56 c-136 -53 -145 -58 -145 -84 0 -21 -10 -33 -57 -60
l-56 -34 -56 31 -56 31 -3 68 -3 68 58 32 59 32 44 -25 44 -25 155 60 c86 34
161 62 166 63 6 2 84 -50 174 -115 90 -65 165 -116 167 -114 2 2 3 535 2 1185
l-3 1181 -185 -113 -185 -113 -3 -419 -3 -419 -82 -55 c-79 -53 -82 -57 -85
-97 -3 -39 -7 -44 -58 -73 l-54 -31 -55 31 -55 31 0 69 0 69 54 31 c53 30 55
30 89 14 l34 -16 62 41 61 42 0 418 0 418 235 142 235 143 0 114 c0 63 -1 114
-2 113 -2 0 -362 -208 -800 -462z m522 -1324 l50 -28 0 -70 0 -71 -53 -30
c-50 -29 -55 -30 -84 -16 -31 15 -32 14 -330 -147 l-299 -161 -100 -137 -101
-138 5 -76 4 -76 -58 -34 -58 -33 -55 30 -56 31 0 68 0 69 54 32 c30 18 59 32
64 31 6 -1 60 66 121 150 l111 152 308 167 307 167 0 42 c0 41 3 45 48 73 26
17 53 31 59 31 7 1 35 -11 63 -26z"/>
<path d="M3412 5848 l3 -453 165 -117 c91 -65 170 -117 175 -118 6 0 71 24
145 53 124 50 135 56 140 82 4 22 18 37 61 62 l56 34 57 -33 56 -32 0 -67 0
-68 -56 -31 -56 -32 -46 25 -47 25 -163 -64 -162 -64 -163 115 -162 115 -3
-1172 c-1 -644 0 -1173 2 -1176 3 -2 86 45 185 105 l181 108 0 417 0 418 85
56 c84 56 85 58 85 98 0 40 2 42 58 73 l57 31 55 -32 55 -32 3 -65 3 -64 -57
-34 c-56 -33 -57 -33 -91 -17 l-35 17 -59 -38 -59 -38 0 -420 0 -421 -217
-128 c-120 -71 -226 -136 -235 -144 -15 -13 -18 -32 -18 -120 0 -79 3 -103 13
-99 6 3 365 210 797 460 l785 456 3 90 3 91 -169 0 -168 0 -130 -78 c-254
-153 -244 -145 -244 -199 0 -48 0 -48 -58 -80 l-57 -31 -55 32 -55 32 -3 66
-3 66 55 32 c51 29 59 30 89 19 31 -11 37 -9 102 33 39 25 128 79 198 121
l128 77 185 0 184 0 0 290 0 290 -180 0 c-139 0 -182 -3 -186 -13 -2 -7 -29
-26 -59 -43 l-55 -29 -55 30 -55 29 0 71 0 70 55 30 56 30 52 -29 c29 -16 56
-35 60 -43 6 -10 49 -13 187 -13 l180 0 0 463 0 464 -455 263 c-251 144 -457
261 -459 259 -2 -2 -29 -46 -61 -97 l-58 -93 2 -77 2 -77 -57 -33 -57 -33 -56
34 -56 33 -3 65 -3 64 57 33 c32 18 63 31 70 28 11 -4 134 182 134 202 0 8
-564 335 -586 340 -12 3 -14 -70 -12 -450z m1354 -499 l54 -30 0 -68 0 -68
-52 -29 c-29 -16 -59 -29 -66 -29 -7 0 -64 -70 -125 -154 l-112 -155 -296
-160 c-162 -89 -300 -165 -307 -169 -7 -5 -12 -27 -12 -50 0 -40 -3 -43 -54
-73 l-53 -32 -57 32 -56 31 0 66 c0 72 0 72 68 110 41 22 45 23 72 7 28 -16
28 -16 321 143 161 87 300 166 309 174 9 9 59 73 110 144 l93 129 -2 75 -2 75
48 30 c26 17 52 31 57 31 5 1 33 -13 62 -30z"/>
<path d="M1045 4630 c-314 -181 -569 -333 -568 -337 2 -7 406 -265 585 -374
l67 -41 246 142 245 142 0 399 c0 219 -1 399 -2 399 -2 0 -259 -149 -573 -330z"/>
<path d="M5110 4553 l0 -398 240 -138 c145 -84 244 -136 252 -131 115 65 647
409 641 414 -11 10 -1122 650 -1128 650 -3 0 -5 -179 -5 -397z"/>
<path d="M1418 3932 c-103 -59 -187 -109 -187 -112 0 -3 87 -55 194 -117 l195
-111 0 224 c0 123 -3 224 -7 224 -5 0 -92 -49 -195 -108z"/>
<path d="M5110 3809 l0 -231 23 14 c12 8 102 61 200 118 98 56 177 104 175
105 -7 7 -387 225 -392 225 -3 0 -6 -104 -6 -231z"/>
<path d="M697 3482 c-361 -209 -455 -268 -445 -277 22 -20 2090 -1216 2098
-1213 37 15 909 525 907 530 -1 6 -1762 1032 -2062 1202 l-40 23 -458 -265z"/>
<path d="M4544 3138 c-577 -334 -1050 -612 -1051 -616 -2 -5 870 -515 907
-530 8 -3 2076 1193 2098 1213 10 9 -85 68 -446 276 l-459 265 -1049 -608z"/>
<path d="M1160 2068 l0 -493 1071 -618 c589 -340 1073 -617 1075 -614 2 2 3
472 2 1045 l-3 1040 -475 -274 c-261 -151 -480 -274 -486 -274 -8 0 -1071 611
-1175 675 -5 4 -9 -184 -9 -487z"/>
<path d="M4985 2210 c-336 -195 -577 -329 -587 -327 -9 3 -228 127 -486 276
-257 148 -476 273 -485 277 -16 6 -17 -61 -17 -1049 l0 -1055 1075 621 1075
620 0 484 c0 265 -1 483 -3 483 -1 0 -259 -149 -572 -330z"/>
</g>
</svg>
